<svg xmlns="http://www.w3.org/2000/svg" viewBox="0 0 512 512" width="512" height="512">
  <defs>
    <linearGradient id="grad" x1="0%" y1="0%" x2="100%" y2="100%">
      <stop offset="0%" style="stop-color:#39ff14;stop-opacity:1" />
      <stop offset="100%" style="stop-color:#00f2fe;stop-opacity:1" />
    </linearGradient>
  </defs>
  <rect width="512" height="512" rx="128" fill="#0b0f19" />
  <circle cx="256" cy="256" r="180" fill="url(#grad)" />
  <path d="M384 192H128c-35.3 0-64 28.7-64 64v64c0 35.3 28.7 64 64 64h256c35.3 0 64-28.7 64-64v-64c0-35.3-28.7-64-64-64zm-192 128h-32v32h-32v-32H96v-32h32v-32h32v32h32v32zm160-16c-13.3 0-24-10.7-24-24s10.7-24 24-24 24 10.7 24 24-10.7 24-24 24zm48-48c-13.3 0-24-10.7-24-24s10.7-24 24-24 24 10.7 24 24-10.7 24-24 24z" fill="#0b0f19" transform="scale(0.8) translate(64, 64)" />
</svg>
